<svg width="500" height="500" viewBox="0 0 500 500" fill="none" xmlns="http://www.w3.org/2000/svg">
<path d="M100.635 100H151.326V293.11H100.635V100Z" fill="#243665"/>
<path d="M189.947 100H240.639V293.11H189.947V100Z" fill="#8BD8BD"/>
<path d="M269.607 172.416H320.299V293.11H269.607V172.416Z" fill="#8BD8BD"/>
<path d="M349.264 100H399.955V293.11H349.264V100Z" fill="#8BD8BD"/>
<path d="M127.757 363.608H102.298V359.247H127.757C133.258 359.247 137.737 358.343 141.194 356.536C144.651 354.689 147.166 352.234 148.737 349.169C150.348 346.066 151.154 342.647 151.154 338.915C151.154 335.065 150.348 331.548 148.737 328.366C147.166 325.184 144.651 322.65 141.194 320.764C137.737 318.839 133.258 317.876 127.757 317.876H104.774V399.321H100V313.515H127.757C133.926 313.515 139.092 314.576 143.257 316.697C147.46 318.819 150.623 321.785 152.745 325.596C154.866 329.368 155.927 333.768 155.927 338.797C155.927 343.905 154.866 348.325 152.745 352.057C150.623 355.75 147.48 358.599 143.315 360.602C139.151 362.606 133.965 363.608 127.757 363.608Z" fill="#243665"/>
<path d="M216.408 313.515H243.93C249.587 313.515 254.557 314.478 258.84 316.403C263.122 318.328 266.462 321.137 268.858 324.83C271.294 328.523 272.512 333.061 272.512 338.444C272.512 342.569 271.628 346.301 269.86 349.641C268.092 352.98 265.696 355.75 262.671 357.95C259.645 360.111 256.227 361.526 252.416 362.193L250.354 362.96H218.707L218.589 358.599H246.346C251.1 358.599 255.049 357.636 258.192 355.711C261.374 353.786 263.751 351.291 265.322 348.226C266.933 345.123 267.739 341.862 267.739 338.444C267.739 334.161 266.776 330.507 264.851 327.482C262.965 324.418 260.235 322.06 256.659 320.41C253.123 318.721 248.88 317.876 243.93 317.876H221.182V399.321H216.408V313.515ZM271.039 399.321L248.055 361.25L253.359 361.192L276.107 398.496V399.321H271.039Z" fill="#243665"/>
<path d="M400 350.702V362.134C400 367.871 399.234 373.096 397.702 377.811C396.209 382.525 394.028 386.572 391.16 389.951C388.292 393.329 384.854 395.942 380.847 397.789C376.839 399.596 372.321 400.5 367.292 400.5C362.381 400.5 357.902 399.596 353.856 397.789C349.809 395.942 346.332 393.329 343.425 389.951C340.557 386.572 338.337 382.525 336.765 377.811C335.233 373.096 334.467 367.871 334.467 362.134V350.702C334.467 344.926 335.233 339.701 336.765 335.025C338.337 330.311 340.557 326.264 343.425 322.885C346.293 319.507 349.73 316.914 353.738 315.106C357.785 313.26 362.263 312.336 367.175 312.336C372.203 312.336 376.722 313.26 380.729 315.106C384.736 316.914 388.174 319.507 391.042 322.885C393.95 326.264 396.169 330.311 397.702 335.025C399.234 339.701 400 344.926 400 350.702ZM395.285 362.134V350.584C395.285 345.555 394.657 340.978 393.4 336.852C392.142 332.688 390.296 329.113 387.86 326.127C385.463 323.141 382.536 320.842 379.079 319.232C375.622 317.581 371.653 316.756 367.175 316.756C362.814 316.756 358.904 317.581 355.447 319.232C351.99 320.842 349.063 323.141 346.666 326.127C344.269 329.113 342.442 332.688 341.185 336.852C339.928 340.978 339.299 345.555 339.299 350.584V362.134C339.299 367.203 339.928 371.819 341.185 375.984C342.482 380.148 344.328 383.723 346.725 386.709C349.122 389.695 352.049 392.013 355.506 393.663C359.003 395.274 362.931 396.08 367.292 396.08C371.771 396.08 375.739 395.274 379.197 393.663C382.654 392.013 385.581 389.695 387.978 386.709C390.374 383.723 392.182 380.148 393.4 375.984C394.657 371.819 395.285 367.203 395.285 362.134Z" fill="#243665"/>
</svg>
