<svg width="1000" height="500" viewBox="0 0 1000 500" fill="none" xmlns="http://www.w3.org/2000/svg">
<path d="M141 169.879H183V329.879H141V169.879Z" fill="#243665"/>
<path d="M215 169.879H257V329.879H215V169.879Z" fill="#8BD8BD"/>
<path d="M281 229.879H323V329.879H281V229.879Z" fill="#8BD8BD"/>
<path d="M347 169.879H389V329.879H347V169.879Z" fill="#8BD8BD"/>
<path d="M485.28 262.013H436.505V256.054H485.28C496.095 256.054 504.886 254.288 511.654 250.757C518.423 247.152 523.352 242.333 526.441 236.301C529.605 230.268 531.187 223.61 531.187 216.327C531.187 208.75 529.605 201.871 526.441 195.691C523.352 189.438 518.423 184.472 511.654 180.794C504.886 177.042 496.095 175.166 485.28 175.166H441.029V329.879H435.07V169.207H485.28C496.683 169.207 506.21 171.157 513.861 175.056C521.586 178.955 527.398 184.436 531.297 191.498C535.196 198.487 537.146 206.69 537.146 216.106C537.146 225.523 535.196 233.689 531.297 240.604C527.471 247.446 521.696 252.743 513.972 256.495C506.321 260.174 496.757 262.013 485.28 262.013Z" fill="#243665"/>
<path d="M583.811 169.207H635.014C645.24 169.207 654.326 171.009 662.271 174.614C670.216 178.146 676.433 183.369 680.92 190.284C685.482 197.126 687.762 205.549 687.762 215.555C687.762 223.353 686.07 230.415 682.686 236.742C679.302 242.995 674.777 248.145 669.113 252.191C663.448 256.238 657.121 258.776 650.132 259.806L646.711 261.13H585.246L585.025 255.171H640.421C649.617 255.171 657.268 253.258 663.374 249.433C669.481 245.607 674.079 240.678 677.168 234.646C680.258 228.539 681.803 222.176 681.803 215.555C681.803 207.094 679.89 199.885 676.065 193.926C672.239 187.893 666.795 183.258 659.733 180.021C652.744 176.785 644.504 175.166 635.014 175.166H589.77V329.879H583.811V169.207ZM688.204 329.879L644.173 259.033L651.125 258.812L694.494 328.334V329.879H688.204Z" fill="#243665"/>
<path d="M859.566 237.515V261.571C859.566 272.018 858.132 281.582 855.263 290.263C852.467 298.87 848.421 306.3 843.124 312.554C837.901 318.807 831.574 323.626 824.143 327.01C816.713 330.394 808.363 332.086 799.094 332.086C789.898 332.086 781.548 330.394 774.044 327.01C766.613 323.626 760.213 318.807 754.843 312.554C749.546 306.3 745.463 298.87 742.594 290.263C739.798 281.582 738.4 272.018 738.4 261.571V237.515C738.4 226.994 739.798 217.431 742.594 208.823C745.463 200.216 749.546 192.785 754.843 186.532C760.14 180.279 766.503 175.46 773.933 172.076C781.364 168.692 789.677 167 798.873 167C808.142 167 816.492 168.692 823.923 172.076C831.353 175.46 837.717 180.279 843.014 186.532C848.384 192.785 852.467 200.216 855.263 208.823C858.132 217.431 859.566 226.994 859.566 237.515ZM853.607 261.571V237.294C853.607 227.877 852.393 219.27 849.966 211.472C847.538 203.6 843.97 196.795 839.262 191.057C834.553 185.318 828.815 180.868 822.047 177.704C815.279 174.541 807.554 172.959 798.873 172.959C790.266 172.959 782.578 174.541 775.809 177.704C769.115 180.868 763.413 185.318 758.705 191.057C754.07 196.795 750.539 203.6 748.111 211.472C745.683 219.27 744.47 227.877 744.47 237.294V261.571C744.47 271.062 745.683 279.743 748.111 287.614C750.613 295.486 754.181 302.291 758.815 308.029C763.524 313.768 769.262 318.218 776.03 321.382C782.798 324.545 790.486 326.127 799.094 326.127C807.775 326.127 815.462 324.545 822.157 321.382C828.925 318.218 834.627 313.768 839.262 308.029C843.97 302.291 847.538 295.486 849.966 287.614C852.393 279.743 853.607 271.062 853.607 261.571Z" fill="#243665"/>
</svg>
