<svg width="1000" height="500" viewBox="0 0 1000 500" fill="none" xmlns="http://www.w3.org/2000/svg">
<path d="M141 170H183V330H141V170Z" fill="white"/>
<path d="M215 170H257V330H215V170Z" fill="#8BD8BD"/>
<path d="M281 230H323V330H281V230Z" fill="#8BD8BD"/>
<path d="M347 170H389V330H347V170Z" fill="#8BD8BD"/>
<path d="M485.28 262.134H436.505V256.175H485.28C496.095 256.175 504.886 254.409 511.654 250.878C518.423 247.273 523.352 242.454 526.441 236.422C529.605 230.389 531.187 223.731 531.187 216.448C531.187 208.871 529.605 201.992 526.441 195.812C523.352 189.559 518.423 184.593 511.654 180.915C504.886 177.163 496.095 175.287 485.28 175.287H441.029V330H435.07V169.328H485.28C496.683 169.328 506.21 171.278 513.861 175.177C521.586 179.076 527.398 184.557 531.297 191.619C535.196 198.608 537.146 206.811 537.146 216.228C537.146 225.644 535.196 233.81 531.297 240.726C527.471 247.567 521.696 252.864 513.972 256.616C506.321 260.295 496.757 262.134 485.28 262.134Z" fill="white"/>
<path d="M583.811 169.328H635.014C645.24 169.328 654.326 171.131 662.271 174.735C670.216 178.267 676.433 183.49 680.92 190.405C685.482 197.247 687.762 205.671 687.762 215.676C687.762 223.474 686.07 230.536 682.686 236.863C679.302 243.117 674.777 248.266 669.113 252.312C663.448 256.359 657.121 258.897 650.132 259.927L646.711 261.251H585.246L585.025 255.292H640.421C649.617 255.292 657.268 253.379 663.374 249.554C669.481 245.728 674.079 240.799 677.168 234.767C680.258 228.66 681.803 222.297 681.803 215.676C681.803 207.215 679.89 200.006 676.065 194.047C672.239 188.014 666.795 183.38 659.733 180.143C652.744 176.906 644.504 175.287 635.014 175.287H589.77V330H583.811V169.328ZM688.204 330L644.173 259.154L651.125 258.934L694.494 328.455V330H688.204Z" fill="white"/>
<path d="M859.566 237.636V261.692C859.566 272.139 858.132 281.703 855.263 290.384C852.467 298.991 848.421 306.422 843.124 312.675C837.901 318.928 831.574 323.747 824.143 327.131C816.713 330.515 808.363 332.207 799.094 332.207C789.898 332.207 781.548 330.515 774.044 327.131C766.613 323.747 760.213 318.928 754.843 312.675C749.546 306.422 745.463 298.991 742.594 290.384C739.798 281.703 738.4 272.139 738.4 261.692V237.636C738.4 227.116 739.798 217.552 742.594 208.944C745.463 200.337 749.546 192.907 754.843 186.653C760.14 180.4 766.503 175.581 773.933 172.197C781.364 168.813 789.677 167.121 798.873 167.121C808.142 167.121 816.492 168.813 823.923 172.197C831.353 175.581 837.717 180.4 843.014 186.653C848.384 192.907 852.467 200.337 855.263 208.944C858.132 217.552 859.566 227.116 859.566 237.636ZM853.607 261.692V237.415C853.607 227.998 852.393 219.391 849.966 211.593C847.538 203.721 843.97 196.916 839.262 191.178C834.553 185.439 828.815 180.989 822.047 177.825C815.279 174.662 807.554 173.08 798.873 173.08C790.266 173.08 782.578 174.662 775.809 177.825C769.115 180.989 763.413 185.439 758.705 191.178C754.07 196.916 750.539 203.721 748.111 211.593C745.683 219.391 744.47 227.998 744.47 237.415V261.692C744.47 271.183 745.683 279.864 748.111 287.735C750.613 295.607 754.181 302.412 758.815 308.15C763.524 313.889 769.262 318.34 776.03 321.503C782.798 324.666 790.486 326.248 799.094 326.248C807.775 326.248 815.462 324.666 822.157 321.503C828.925 318.34 834.627 313.889 839.262 308.15C843.97 302.412 847.538 295.607 849.966 287.735C852.393 279.864 853.607 271.183 853.607 261.692Z" fill="white"/>
</svg>
